# xmcd
#
# Track frame offsets:
#	150
#	25781
#	64316
#	92067
#	112640
#	135679
#	162300
#	188873
#	224084
#	249684
#	264746
#	282832
#	297404
#
# Disc length: 4336 seconds
#
# Revision: 1
# Processed by: cddbd v1.4PL0 Copyright (c) Steve Scherf et al.
# Submitted via: audiograbber 1.81.02
#
DISCID=c910ee0d
DTITLE=Игорь Тальков - Чистые пруды
DYEAR=1990
DGENRE=Ballad
TTITLE0=Чистые пруды
TTITLE1=Летний дождь
TTITLE2=Моя любовь
TTITLE3=Спасательный круг
TTITLE4=Памяти Виктора Цоя
TTITLE5=Звезда
TTITLE6=Бывший подъесаул
TTITLE7=Россия
TTITLE8=Память
TTITLE9=Самый лучший день
TTITLE10=Примерный мальчик
TTITLE11=Друзья товарищи
TTITLE12=Я вернусь
EXTD=Сборник
EXTT0=
EXTT1=
EXTT2=
EXTT3=
EXTT4=
EXTT5=
EXTT6=
EXTT7=
EXTT8=
EXTT9=
EXTT10=
EXTT11=
EXTT12=
PLAYORDER=
